<svg xmlns="http://www.w3.org/2000/svg" width="16" height="16" version="1.1">
 <defs>
  <style id="current-color-scheme" type="text/css">
   .ColorScheme-Text { color:#444444; } .ColorScheme-Highlight { color:#4285f4; } .ColorScheme-NeutralText { color:#ff9800; } .ColorScheme-PositiveText { color:#4caf50; } .ColorScheme-NegativeText { color:#f44336; }
  </style>
 </defs>
 <path style="fill:currentColor" class="ColorScheme-Text" d="m 3.4689451,3 c -0.259826,0 -0.46875,0.3119727 -0.46875,0.6992188 V 5 6.300781 6.75 c -0.35,-0.6923 -2,-1 -2,-1 V 7 H 1.9515e-4 v 3 H 1.0001951 v 1 c -0.0136719,0 1.65,-0.3077 2,-1 0.35,0.6923 4.2503907,2 7.0503919,2 2.799999,0 5.949218,-1.514494 5.949218,-3.808594 C 15.996805,6.561107 14.127906,5.1713 11.999806,4.5 V 3.6914062 C 11.999806,3.3079062 11.688387,3 11.300587,3 H 7.8005858 C 7.4127858,3 6.9998045,3.3079062 6.9998045,3.6914062 V 4.5 C 6.4031936,4.688565 4.4027167,5.034163 4.0001951,5.417969 V 5 3.6992188 C 4.0001951,3.3119727 3.7912711,3 3.5314451,3 Z m 2.53125,4 c 0.5522847,0 0.9999997,0.447715 0.9999997,1 0,0.552285 -0.447715,1 -0.9999997,1 -0.5522847,0 -1,-0.447715 -1,-1 0,-0.552285 0.4477153,-1 1,-1 z m 2.9999997,0 c 0.552285,0 1.0000012,0.447715 1.0000012,1 0,0.552285 -0.4477162,1 -1.0000012,1 -0.552284,0 -1,-0.447715 -1,-1 0,-0.552285 0.447716,-1 1,-1 z m 3.0000012,0 c 0.552285,0 1,0.447715 1,1 0,0.552285 -0.447715,1 -1,1 -0.552285,0 -1,-0.447715 -1,-1 0,-0.552285 0.447715,-1 1,-1 z"/>
</svg>
