<svg xmlns="http://www.w3.org/2000/svg" width="16" height="16" version="1.1">
 <defs>
  <style id="current-color-scheme" type="text/css">
   .ColorScheme-Text { color:#444444; } .ColorScheme-Highlight { color:#4285f4; } .ColorScheme-NeutralText { color:#ff9800; } .ColorScheme-PositiveText { color:#4caf50; } .ColorScheme-NegativeText { color:#f44336; }
  </style>
 </defs>
 <path style="fill:currentColor" class="ColorScheme-Text" d="M 8,1 A 7,7 0 0 0 1,8 7,7 0 0 0 8,15 7,7 0 0 0 15,8 7,7 0 0 0 8,1 Z M 6.5156,4.002 c 0.1356,-0.0025 0.2731,-0.0013 0.4063,0 3.1971,0.0437 5.6851,1.371 5.6851,1.371 0.324,0.1721 0.479,0.6869 0.344,1.0997 -0.135,0.4127 -0.551,0.6423 -0.875,0.4707 0,0 -4.055,-2.1407 -8.1834,-0.8243 C 3.5449,6.2645 3.1067,5.9836 3.0176,5.5312 2.9285,5.079 3.1885,4.5538 3.5488,4.4727 4.5666,4.1481 5.5666,4.0218 6.5156,4.002 Z m 0.4356,3 c 0.1128,-10e-4 0.2122,-0.0042 0.3222,0 2.639,0.092 4.4666,1.5507 4.4666,1.5507 0.234,0.185 0.328,0.6616 0.207,1.0196 -0.121,0.358 -0.441,0.5387 -0.676,0.3535 0,0 -2.907,-2.3446 -6.6421,-0.9746 C 4.3664,9.0752 4.0755,8.8289 4.0117,8.4199 3.9479,8.0109 4.153,7.5612 4.4238,7.4902 5.3212,7.1612 6.162,7.009 6.9512,7.002 Z M 7.2656,10 c 1.291,0.025 2.442,0.504 3.5434,1.154 0.164,0.108 0.243,0.412 0.152,0.629 -0.091,0.218 -0.337,0.285 -0.486,0.141 0,0 -2.036,-1.659 -5.057,-0.735 C 5.2446,11.264 5.046,11.12 5.0059,10.875 4.9658,10.63 5.1092,10.35 5.2891,10.314 5.9993,10.097 6.6604,9.996 7.2656,10 Z"/>
</svg>
