<svg xmlns="http://www.w3.org/2000/svg" xml:space="preserve" width="16" height="16" version="1.1">
 <defs>
  <style id="current-color-scheme" type="text/css">
   .ColorScheme-Text { color:#444444; } .ColorScheme-Highlight { color:#4285f4; } .ColorScheme-NeutralText { color:#ff9800; } .ColorScheme-PositiveText { color:#4caf50; } .ColorScheme-NegativeText { color:#f44336; }
  </style>
 </defs>
 <path style="fill:currentColor" class="ColorScheme-Text" d="M 2.8151308,4.0188108 3.982946,3.6513087 4.4127802,3.5427246 l 0.186525,0.5261975 0.4054874,1.7039 h 0.048656 C 5.2824612,4.9580259 5.1551675,4.2175128 5.7508923,3.5178664 6.4922296,2.6472043 7.9347125,3.0090774 8,4.2194632 8.0338437,4.8475634 7.215098,5.2294134 6.7646295,4.8041336 6.418692,4.4775316 6.5618858,4.0786591 6.5618858,3.6682003 6.1089609,3.7049872 5.8302235,4.2750684 5.702236,4.6704938 5.3586893,5.7319651 5.4850455,6.865934 5.7427361,7.9277431 5.8138923,8.2209956 5.843311,8.8177159 6.0752484,9.0219074 6.4367858,9.3402058 6.9458106,8.8909518 7.352873,8.8799254 L 7.4740274,9.3776375 6.5618389,9.6734029 3.8855773,10.383352 C 3.8760133,10.257871 3.7571398,10.002796 3.8125463,9.8905619 3.983565,9.5443689 4.7034616,9.8269319 4.8506209,9.3309468 4.9505676,8.994042 4.7105208,8.503241 4.6316489,8.1783189 4.4246115,7.325413 4.2061178,6.4754038 3.999071,5.6224786 3.9128211,5.2671711 3.8663398,4.8105694 3.544918,4.5867775 3.22434,4.363565 2.7584214,4.5711358 2.4257591,4.6702963 c 0,0 -0.562931,0.6249719 -0.8190934,1.1526275 -0.3852561,0.7935447 -0.67636853,1.9129964 -0.5920311,2.8064161 0.058406,0.6183869 0.1864781,1.288122 0.4460436,1.8542341 1.4971495,3.265239 5.4288825,4.089488 8.5559318,3.157215 0,0 -0.1533942,-0.61521 -0.2595097,-1.052405 C 9.3511254,10.915912 8.7221501,8.9696441 8.3161753,7.297211 8.190241,6.7783901 8.052841,6.2624754 7.9269067,5.7436642 7.8917504,5.5988435 7.7483411,5.2853148 7.8052567,5.1422803 7.8660067,4.9896774 8.9315687,4.7093342 9.0866125,4.7747782 9.2353187,4.837538 9.2701187,5.2475623 9.2812561,5.3928561 9.5173092,5.3037372 9.6686123,4.8765842 9.8651684,4.6912593 10.304621,4.2769094 11.012631,3.9792637 11.616906,4.0397642 c 2.55554,0.2558862 3.265283,4.3850282 1.021837,5.6044716 -0.93779,0.5097542 -1.622301,0.2521451 -2.33564,-0.192103 l 1.02731,3.6373932 c 0.641521,-0.243991 1.513884,-0.804185 2.043693,-1.236156 2.038799,-1.662314 3.361771,-4.8095361 2.181562,-7.3835285 C 13.854688,0.76002196 8.9577693,0.26429669 5.685933,1.8555283 4.7138864,2.3282835 3.3771057,3.0189215 2.815037,4.0188012 m 7.877334,1.0900716 C 8.8370876,5.5069535 9.7709779,9.6578208 11.665562,9.0345087 12.214796,8.8538185 12.362725,8.3654699 12.460328,7.8484739 12.661177,6.7846274 12.01675,4.8247157 10.692371,5.1088728"/>
</svg>
