<svg xmlns="http://www.w3.org/2000/svg" width="16" height="16" version="1.1">
 <defs>
  <style id="current-color-scheme" type="text/css">
   .ColorScheme-Text { color:#444444; } .ColorScheme-Highlight { color:#4285f4; } .ColorScheme-NeutralText { color:#ff9800; } .ColorScheme-PositiveText { color:#4caf50; } .ColorScheme-NegativeText { color:#f44336; }
  </style>
 </defs>
 <path style="fill:currentColor" class="ColorScheme-Text" d="M 8.5,0 A 7.5,7.5 0 0 0 1,7.5 7.5,7.5 0 0 0 8.5,15 7.5,7.5 0 0 0 13.035156,13.449219 l 1.257813,1.257812 a 1,1 0 0 0 1.414062,0 1,1 0 0 0 0,-1.414062 L 14.449219,12.035156 A 7.5,7.5 0 0 0 16,7.5 7.5,7.5 0 0 0 8.5,0 Z m 0,2 A 5.5,5.5 0 0 1 14,7.5 5.5,5.5 0 0 1 13.015625,10.601562 L 11.707031,9.292969 A 1,1 0 0 0 11,9 a 1,1 0 0 0 -0.707031,0.292969 1,1 0 0 0 0,1.414062 l 1.308593,1.308594 A 5.5,5.5 0 0 1 8.5,13 5.5,5.5 0 0 1 3,7.5 5.5,5.5 0 0 1 8.5,2 Z m 0,3 A 2.5,2.5 0 0 0 6,7.5 2.5,2.5 0 0 0 8.5,10 2.5,2.5 0 0 0 11,7.5 2.5,2.5 0 0 0 8.5,5 Z m 0,2 A 0.5,0.5 0 0 1 9,7.5 0.5,0.5 0 0 1 8.5,8 0.5,0.5 0 0 1 8,7.5 0.5,0.5 0 0 1 8.5,7 Z"/>
</svg>
