<svg xmlns="http://www.w3.org/2000/svg" width="22" height="22" version="1.1">
 <defs>
  <style id="current-color-scheme" type="text/css">
   .ColorScheme-Text { color:#444444; } .ColorScheme-Highlight { color:#4285f4; } .ColorScheme-NeutralText { color:#ff9800; } .ColorScheme-PositiveText { color:#4caf50; } .ColorScheme-NegativeText { color:#f44336; }
  </style>
 </defs>
 <path style="fill:currentColor" class="ColorScheme-Text" d="m 6.4689453,6 c -0.259826,0 -0.46875,0.3119727 -0.46875,0.6992188 V 8 9.300781 9.75 c -0.35,-0.6923 -2,-1 -2,-1 V 10 h -1 v 3 h 1 v 1 c -0.013672,0 1.65,-0.3077 2,-1 0.35,0.6923 4.2503907,2 7.0503917,2 2.799999,0 5.949218,-1.514494 5.949218,-3.808594 C 18.996805,9.561107 17.127906,8.1713 14.999806,7.5 V 6.6914062 C 14.999806,6.3079062 14.688387,6 14.300587,6 H 10.800586 C 10.412786,6 9.9998047,6.3079062 9.9998047,6.6914062 V 7.5 C 9.4031938,7.688565 7.4027169,8.034163 7.0001953,8.417969 V 8 6.6992188 C 7.0001953,6.3119727 6.7912713,6 6.5314453,6 Z m 2.53125,4 c 0.5522847,0 0.9999997,0.447715 0.9999997,1 0,0.552285 -0.447715,1 -0.9999997,1 -0.5522847,0 -1,-0.447715 -1,-1 0,-0.552285 0.4477153,-1 1,-1 z m 2.9999997,0 c 0.552285,0 1.000001,0.447715 1.000001,1 0,0.552285 -0.447716,1 -1.000001,1 -0.552284,0 -1,-0.447715 -1,-1 0,-0.552285 0.447716,-1 1,-1 z m 3.000001,0 c 0.552285,0 1,0.447715 1,1 0,0.552285 -0.447715,1 -1,1 -0.552285,0 -1,-0.447715 -1,-1 0,-0.552285 0.447715,-1 1,-1 z"/>
</svg>
