<svg xmlns="http://www.w3.org/2000/svg" width="22" height="22" version="1.1">
 <defs>
  <style id="current-color-scheme" type="text/css">
   .ColorScheme-Text { color:#444444; } .ColorScheme-Highlight { color:#4285f4; } .ColorScheme-NeutralText { color:#ff9800; } .ColorScheme-PositiveText { color:#4caf50; } .ColorScheme-NegativeText { color:#f44336; }
  </style>
 </defs>
 <path style="fill:currentColor" class="ColorScheme-Text" d="M 10.5,4 A 7.5,7.5 0 0 0 3,11.5 7.5,7.5 0 0 0 10.5,19 7.5,7.5 0 0 0 15.035156,17.449219 l 1.257813,1.257812 a 1,1 0 0 0 1.414062,0 1,1 0 0 0 0,-1.414062 L 16.449219,16.035156 A 7.5,7.5 0 0 0 18,11.5 7.5,7.5 0 0 0 10.5,4 Z m 0,2 a 5.5,5.5 0 0 1 5.5,5.5 5.5,5.5 0 0 1 -0.984375,3.101562 L 13.707031,13.292969 A 1,1 0 0 0 13,13 a 1,1 0 0 0 -0.707031,0.292969 1,1 0 0 0 0,1.414062 l 1.308593,1.308594 A 5.5,5.5 0 0 1 10.5,17 5.5,5.5 0 0 1 5,11.5 5.5,5.5 0 0 1 10.5,6 Z m 0,3 A 2.5,2.5 0 0 0 8,11.5 2.5,2.5 0 0 0 10.5,14 2.5,2.5 0 0 0 13,11.5 2.5,2.5 0 0 0 10.5,9 Z m 0,2 A 0.5,0.5 0 0 1 11,11.5 0.5,0.5 0 0 1 10.5,12 0.5,0.5 0 0 1 10,11.5 0.5,0.5 0 0 1 10.5,11 Z"/>
</svg>
