<svg xmlns="http://www.w3.org/2000/svg" width="22" height="22" version="1.1">
 <defs>
  <style id="current-color-scheme" type="text/css">
   .ColorScheme-Text { color:#444444; } .ColorScheme-Highlight { color:#4285f4; } .ColorScheme-NeutralText { color:#ff9800; } .ColorScheme-PositiveText { color:#4caf50; } .ColorScheme-NegativeText { color:#f44336; }
  </style>
 </defs>
 <path style="fill:currentColor" class="ColorScheme-Text" d="m 11,4 a 7,7 0 0 0 -7,7 7,7 0 0 0 7,7 7,7 0 0 0 7,-7 7,7 0 0 0 -7,-7 z M 9.5156,7.002 c 0.1356,-0.0025 0.2731,-0.0013 0.4063,0 3.1971,0.0437 5.6851,1.371 5.6851,1.371 0.324,0.1721 0.479,0.6869 0.344,1.0997 -0.135,0.4127 -0.551,0.6423 -0.875,0.4707 0,0 -4.055,-2.1407 -8.1834,-0.8243 C 6.5449,9.2645 6.1067,8.9836 6.0176,8.5312 5.9285,8.079 6.1885,7.5538 6.5488,7.4727 7.5666,7.1481 8.5666,7.0218 9.5156,7.002 Z m 0.4356,3 c 0.1128,-0.001 0.2122,-0.0042 0.3222,0 2.639,0.092 4.4666,1.5507 4.4666,1.5507 0.234,0.185 0.328,0.6616 0.207,1.0196 -0.121,0.358 -0.441,0.5387 -0.676,0.3535 0,0 -2.907,-2.3446 -6.6421,-0.9746 C 7.3664,12.0752 7.0755,11.8289 7.0117,11.4199 6.9479,11.0109 7.153,10.5612 7.4238,10.4902 8.3212,10.1612 9.162,10.009 9.9512,10.002 Z M 10.2656,13 c 1.291,0.025 2.442,0.504 3.5434,1.154 0.164,0.108 0.243,0.412 0.152,0.629 -0.091,0.218 -0.337,0.285 -0.486,0.141 0,0 -2.036,-1.659 -5.057,-0.735 C 8.2446,14.264 8.046,14.12 8.0059,13.875 7.9658,13.63 8.1092,13.35 8.2891,13.314 8.9993,13.097 9.6604,12.996 10.2656,13 Z"/>
</svg>
